<svg xmlns="http://www.w3.org/2000/svg" viewBox="0 0 512 512">
  <defs>
    <linearGradient id="bg" x1="0%" y1="0%" x2="100%" y2="100%">
      <stop offset="0%" stop-color="#003366" />
      <stop offset="100%" stop-color="#007DBC" />
    </linearGradient>
    <linearGradient id="wheat" x1="0%" y1="0%" x2="0%" y2="100%">
      <stop offset="0%" stop-color="#FFD700" />
      <stop offset="100%" stop-color="#F2A900" />
    </linearGradient>
  </defs>
  
  <!-- Outer Navy/Blue modern rounded square -->
  <rect width="512" height="512" rx="112" fill="url(#bg)" />
  
  <!-- Outer Shield / Drop motif in Gold (representing Fortification) -->
  <path d="M256 96 C 130 96 112 180 112 256 C 112 360 256 416 256 416 C 256 416 400 360 400 256 C 400 180 382 96 256 96 Z" fill="url(#wheat)" />
  
  <!-- Inner Blue Shield -->
  <path d="M256 128 C 170 128 160 190 160 256 C 160 320 256 368 256 368 C 256 368 352 320 352 256 C 352 190 342 128 256 128 Z" fill="#007DBC" />
  
  <!-- Central cross (Health/Nutrition icon) -->
  <path d="M236 196 H 276 V 316 H 236 Z" fill="#FFF" />
  <path d="M196 236 H 316 V 276 H 196 Z" fill="#FFF" />
</svg>
